<?xml version="1.0" encoding="UTF-8" standalone="no"?>
<!DOCTYPE svg PUBLIC "-//W3C//DTD SVG 1.1//EN"
 "http://www.w3.org/Graphics/SVG/1.1/DTD/svg11.dtd">
<!-- Generated by graphviz version 2.34.0 (20130907.0228)
 -->
<!-- Title: %229 Pages: 1 -->
<svg width="358pt" height="332pt"
 viewBox="0.00 0.00 358.00 332.00" xmlns="http://www.w3.org/2000/svg" xmlns:xlink="http://www.w3.org/1999/xlink">
<g id="graph0" class="graph" transform="scale(1 1) rotate(0) translate(4 328)">
<title>%229</title>
<polygon fill="none" stroke="none" points="-4,4 -4,-328 354,-328 354,4 -4,4"/>
<!-- German -->
<g id="node1" class="node"><title>German</title>
<ellipse fill="none" stroke="black" cx="40" cy="-18" rx="39.9464" ry="18"/>
<text text-anchor="middle" x="40" y="-14.3" font-family="Times,serif" font-size="14.00">German</text>
</g>
<!-- Italian -->
<g id="node2" class="node"><title>Italian</title>
<ellipse fill="none" stroke="black" cx="227" cy="-18" rx="33.1991" ry="18"/>
<text text-anchor="middle" x="227" y="-14.3" font-family="Times,serif" font-size="14.00">Italian</text>
</g>
<!-- French -->
<g id="node3" class="node"><title>French</title>
<ellipse fill="none" stroke="black" cx="315" cy="-18" rx="35.6194" ry="18"/>
<text text-anchor="middle" x="315" y="-14.3" font-family="Times,serif" font-size="14.00">French</text>
</g>
<!-- English -->
<g id="node4" class="node"><title>English</title>
<ellipse fill="none" stroke="black" cx="137" cy="-18" rx="38.0212" ry="18"/>
<text text-anchor="middle" x="137" y="-14.3" font-family="Times,serif" font-size="14.00">English</text>
</g>
<!-- α -->
<g id="node5" class="node"><title>α</title>
<ellipse fill="none" stroke="black" cx="88" cy="-306" rx="27" ry="18"/>
<text text-anchor="middle" x="88" y="-302.3" font-family="Times,serif" font-size="14.00">α</text>
</g>
<!-- Greek Long -->
<g id="node6" class="node"><title>Greek Long</title>
<ellipse fill="none" stroke="black" cx="88" cy="-234" rx="56.3173" ry="18"/>
<text text-anchor="middle" x="88" y="-230.3" font-family="Times,serif" font-size="14.00">Greek Long</text>
</g>
<!-- α&#45;&gt;Greek Long -->
<g id="edge1" class="edge"><title>α&#45;&gt;Greek Long</title>
<path fill="none" stroke="black" d="M88,-287.697C88,-279.983 88,-270.712 88,-262.112"/>
<polygon fill="black" stroke="black" points="91.5001,-262.104 88,-252.104 84.5001,-262.104 91.5001,-262.104"/>
</g>
<!-- Greek Long&#45;&gt;German -->
<g id="edge3" class="edge"><title>Greek Long&#45;&gt;German</title>
<path fill="none" stroke="black" d="M81.9605,-215.966C78.4468,-205.648 74.1116,-192.171 71,-180 59.091,-133.419 49.4019,-78.2187 44.1876,-46.0503"/>
<polygon fill="black" stroke="black" points="47.627,-45.3928 42.5941,-36.0698 40.7146,-46.4966 47.627,-45.3928"/>
</g>
<!-- Greek Short -->
<g id="node7" class="node"><title>Greek Short</title>
<ellipse fill="none" stroke="black" cx="137" cy="-162" rx="57.2927" ry="18"/>
<text text-anchor="middle" x="137" y="-158.3" font-family="Times,serif" font-size="14.00">Greek Short</text>
</g>
<!-- Greek Long&#45;&gt;Greek Short -->
<g id="edge2" class="edge"><title>Greek Long&#45;&gt;Greek Short</title>
<path fill="none" stroke="black" d="M99.8615,-216.055C105.7,-207.715 112.856,-197.491 119.324,-188.252"/>
<polygon fill="black" stroke="black" points="122.38,-189.988 125.248,-179.789 116.646,-185.974 122.38,-189.988"/>
</g>
<!-- Greek Short&#45;&gt;English -->
<g id="edge5" class="edge"><title>Greek Short&#45;&gt;English</title>
<path fill="none" stroke="black" d="M137,-143.871C137,-119.67 137,-75.2108 137,-46.3932"/>
<polygon fill="black" stroke="black" points="140.5,-46.1892 137,-36.1893 133.5,-46.1893 140.5,-46.1892"/>
</g>
<!-- Latin -->
<g id="node8" class="node"><title>Latin</title>
<ellipse fill="none" stroke="black" cx="227" cy="-90" rx="29.3479" ry="18"/>
<text text-anchor="middle" x="227" y="-86.3" font-family="Times,serif" font-size="14.00">Latin</text>
</g>
<!-- Greek Short&#45;&gt;Latin -->
<g id="edge4" class="edge"><title>Greek Short&#45;&gt;Latin</title>
<path fill="none" stroke="black" d="M157.422,-145.116C170.393,-135.028 187.293,-121.883 201.189,-111.075"/>
<polygon fill="black" stroke="black" points="203.647,-113.598 209.392,-104.695 199.349,-108.072 203.647,-113.598"/>
</g>
<!-- Latin&#45;&gt;Italian -->
<g id="edge6" class="edge"><title>Latin&#45;&gt;Italian</title>
<path fill="none" stroke="black" d="M227,-71.6966C227,-63.9827 227,-54.7125 227,-46.1124"/>
<polygon fill="black" stroke="black" points="230.5,-46.1043 227,-36.1043 223.5,-46.1044 230.5,-46.1043"/>
</g>
<!-- Latin&#45;&gt;French -->
<g id="edge7" class="edge"><title>Latin&#45;&gt;French</title>
<path fill="none" stroke="black" d="M244.386,-75.1703C257.031,-65.1115 274.374,-51.316 288.708,-39.9142"/>
<polygon fill="black" stroke="black" points="291.094,-42.4883 296.741,-33.524 286.736,-37.0101 291.094,-42.4883"/>
</g>
</g>
</svg>
